<svg width="96px" height="15px" viewBox="0 0 96 15" version="1.1" xmlns="http://www.w3.org/2000/svg"
     xmlns:xlink="http://www.w3.org/1999/xlink">
    <defs/>
    <g stroke="none" stroke-width="1" fill="none" fill-rule="evenodd">
        <g transform="translate(-64.000000, -1293.000000)" fill="#0068A8" fill-rule="nonzero">
            <g transform="translate(22.000000, 391.000000)">
                <g transform="translate(0.000000, 882.000000)">
                    <g transform="translate(42.000000, 20.000000)">
                        <path d="M1.48404374,10.5542744 C1.34746186,10.5847401 1.21075484,10.6152753 1.07392391,10.6458831 L1.15445337,10.6876881 C1.27198671,10.6614398 1.38942841,10.6352451 1.50677847,10.609104 L1.48404374,10.5542744 Z M86.9488702,2.09044571 L87.0355908,2.03455642 C86.8905324,2.01248857 86.7448908,1.99076114 86.598666,1.96937413 L86.5798346,2.03615304 C86.7032553,2.05401089 86.8262672,2.07210845 86.9488702,2.09044571 Z M0.127180254,9.89272434 L0.707780445,9.76284962 C39.3910227,1.10977746 68.2215168,-1.77031481 87.2904853,1.13066457 L87.8501693,1.21580979 L87.321767,3.08959838 L86.8851903,3.02318158 C68.1999929,0.180585648 39.6384056,3.04408986 1.29221956,11.6217658 L0.882149499,11.7134945 L0.127180254,9.89272434 Z"/>
                        <path d="M8.76782752,12.9388897 C8.63124564,12.9693554 8.49453862,12.9998907 8.35770769,13.0304985 L8.43823716,13.0723035 C8.55577049,13.0460552 8.67321219,13.0198605 8.79056226,12.9937194 L8.76782752,12.9388897 Z M94.232654,4.47506109 L94.3193746,4.41917181 C94.1743162,4.39710395 94.0286746,4.37537652 93.8824498,4.35398951 L93.8636184,4.42076842 C93.9870391,4.43862628 94.110051,4.45672383 94.232654,4.47506109 Z M7.41096404,12.2773397 L7.99156423,12.147465 C46.6748065,3.49439284 75.5053006,0.614300579 94.5742691,3.51527995 L95.1339531,3.60042518 L94.6055508,5.47421377 L94.1689741,5.40779697 C75.4837767,2.56520103 46.9221894,5.42870524 8.57600334,14.0063811 L8.16593328,14.0981099 L7.41096404,12.2773397 Z"/>
                    </g>
                </g>
            </g>
        </g>
    </g>
</svg>