<svg width="8px" height="10px" viewBox="0 0 8 10" version="1.1" xmlns="http://www.w3.org/2000/svg" xmlns:xlink="http://www.w3.org/1999/xlink"><g stroke="none" stroke-width="1" fill="none" fill-rule="evenodd"><g transform="translate(0.000000, -5.000000)" fill="#00AC9D"><g><g transform="translate(0.000000, 5.000000)"><path d="M4.09151711,6.10659421 C4.30153992,5.98635389 4.44444444,5.74915279 4.44444444,5.47619048 C4.44444444,5.08170137 4.14596761,4.76190476 3.77777778,4.76190476 C3.40958794,4.76190476 3.11111111,5.08170137 3.11111111,5.47619048 C3.11111111,5.74914456 3.25400702,5.98633958 3.46401945,6.10658333 L3.11111111,7.61904762 L4.44444444,7.61904762 L4.09151711,6.10659421 Z M6.66685655,2.85714286 L7.11111111,2.85714286 C7.33333333,2.85714286 7.55555556,3.1122449 7.55555556,3.36734694 L7.55555556,9.48979592 C7.56537798,9.74489796 7.33333333,10 7.11111111,10 L0.444444444,10 C0.222222222,10 0,9.74489796 0,9.48979592 L0.0356174045,3.37759213 C0.0356174045,3.1122449 0.222222222,2.85714286 0.443522135,2.85714286 L0.888888889,2.85714286 C1.79258898,2.85714287 5.77842882,2.85714285 6.66685655,2.85714286 Z" fill-rule="evenodd"/><path d="M2.22222222,1.90589023 L2.22222222,1.90589023 L2.22222222,3.33220501 C2.22222222,3.85884114 2.62064403,4.28571429 3.11216421,4.28571429 L4.44339134,4.28571429 C4.9349184,4.28571429 5.33333333,3.85883377 5.33333333,3.33220501 L5.33333333,1.90589023 C5.33333333,1.37925409 4.93491152,0.952380952 4.44339134,0.952380952 L3.11216421,0.952380952 C2.62063716,0.952380952 2.22222222,1.37926146 2.22222222,1.90589023 L2.22222222,1.90589023 Z M3.11216421,0 L4.44339134,0 C5.42581251,0 6.22222222,0.853248487 6.22222222,1.90589023 L6.22222222,3.33220501 C6.22222222,4.38479912 5.42585697,4.28571429 4.44339134,4.28571429 L3.11216421,4.28571429 C2.12974305,4.28571429 1.33333333,4.38484675 1.33333333,3.33220501 L1.33333333,1.90589023 C1.33333333,0.85329612 2.12969859,0 3.11216421,0 Z" fill-rule="nonzero"/></g></g></g></g></svg>